<svg width="62" height="62" viewBox="0 0 62 62" fill="none" xmlns="http://www.w3.org/2000/svg">
<g filter="url(#filter0_d_510_1893)">
<rect width="53.3061" height="53.3061" transform="translate(4.5918)" fill="#F9F9F9"/>
<path d="M43.7347 10H18.7551C16.4558 10 14.5918 11.864 14.5918 14.1633V39.1429C14.5918 41.4422 16.4558 43.3061 18.7551 43.3061H43.7347C46.034 43.3061 47.8979 41.4422 47.8979 39.1429V14.1633C47.8979 11.864 46.034 10 43.7347 10ZM16.6734 18.0292C16.6734 17.0437 17.6054 16.2449 18.7551 16.2449H43.7347C44.8843 16.2449 45.8163 17.0437 45.8163 18.0292V39.4402C45.8163 40.4257 44.8843 41.2245 43.7347 41.2245H18.7551C17.6054 41.2245 16.6734 40.4257 16.6734 39.4402V18.0292Z" fill="black"/>
<path d="M28.1224 24.5715C29.2721 24.5715 30.2041 23.6395 30.2041 22.4898C30.2041 21.3402 29.2721 20.4082 28.1224 20.4082C26.9728 20.4082 26.0408 21.3402 26.0408 22.4898C26.0408 23.6395 26.9728 24.5715 28.1224 24.5715Z" fill="black"/>
<path d="M34.3673 24.5715C35.517 24.5715 36.449 23.6395 36.449 22.4898C36.449 21.3402 35.517 20.4082 34.3673 20.4082C33.2177 20.4082 32.2857 21.3402 32.2857 22.4898C32.2857 23.6395 33.2177 24.5715 34.3673 24.5715Z" fill="black"/>
<path d="M40.6122 24.5715C41.7619 24.5715 42.6939 23.6395 42.6939 22.4898C42.6939 21.3402 41.7619 20.4082 40.6122 20.4082C39.4626 20.4082 38.5306 21.3402 38.5306 22.4898C38.5306 23.6395 39.4626 24.5715 40.6122 24.5715Z" fill="black"/>
<path d="M21.8775 30.8164C23.0272 30.8164 23.9592 29.8844 23.9592 28.7347C23.9592 27.5851 23.0272 26.6531 21.8775 26.6531C20.7279 26.6531 19.7959 27.5851 19.7959 28.7347C19.7959 29.8844 20.7279 30.8164 21.8775 30.8164Z" fill="black"/>
<path d="M28.1224 30.8164C29.2721 30.8164 30.2041 29.8844 30.2041 28.7347C30.2041 27.5851 29.2721 26.6531 28.1224 26.6531C26.9728 26.6531 26.0408 27.5851 26.0408 28.7347C26.0408 29.8844 26.9728 30.8164 28.1224 30.8164Z" fill="black"/>
<path d="M34.3673 30.8164C35.517 30.8164 36.449 29.8844 36.449 28.7347C36.449 27.5851 35.517 26.6531 34.3673 26.6531C33.2177 26.6531 32.2857 27.5851 32.2857 28.7347C32.2857 29.8844 33.2177 30.8164 34.3673 30.8164Z" fill="black"/>
<path d="M40.6122 30.8164C41.7619 30.8164 42.6939 29.8844 42.6939 28.7347C42.6939 27.5851 41.7619 26.6531 40.6122 26.6531C39.4626 26.6531 38.5306 27.5851 38.5306 28.7347C38.5306 29.8844 39.4626 30.8164 40.6122 30.8164Z" fill="black"/>
<path d="M21.8775 37.0613C23.0272 37.0613 23.9592 36.1293 23.9592 34.9796C23.9592 33.83 23.0272 32.898 21.8775 32.898C20.7279 32.898 19.7959 33.83 19.7959 34.9796C19.7959 36.1293 20.7279 37.0613 21.8775 37.0613Z" fill="black"/>
<path d="M28.1224 37.0613C29.2721 37.0613 30.2041 36.1293 30.2041 34.9796C30.2041 33.83 29.2721 32.898 28.1224 32.898C26.9728 32.898 26.0408 33.83 26.0408 34.9796C26.0408 36.1293 26.9728 37.0613 28.1224 37.0613Z" fill="black"/>
<path d="M34.3673 37.0613C35.517 37.0613 36.449 36.1293 36.449 34.9796C36.449 33.83 35.517 32.898 34.3673 32.898C33.2177 32.898 32.2857 33.83 32.2857 34.9796C32.2857 36.1293 33.2177 37.0613 34.3673 37.0613Z" fill="black"/>
</g>
<defs>
<filter id="filter0_d_510_1893" x="0.591797" y="0" width="61.3062" height="61.3062" filterUnits="userSpaceOnUse" color-interpolation-filters="sRGB">
<feFlood flood-opacity="0" result="BackgroundImageFix"/>
<feColorMatrix in="SourceAlpha" type="matrix" values="0 0 0 0 0 0 0 0 0 0 0 0 0 0 0 0 0 0 127 0" result="hardAlpha"/>
<feOffset dy="4"/>
<feGaussianBlur stdDeviation="2"/>
<feComposite in2="hardAlpha" operator="out"/>
<feColorMatrix type="matrix" values="0 0 0 0 0 0 0 0 0 0 0 0 0 0 0 0 0 0 0.25 0"/>
<feBlend mode="normal" in2="BackgroundImageFix" result="effect1_dropShadow_510_1893"/>
<feBlend mode="normal" in="SourceGraphic" in2="effect1_dropShadow_510_1893" result="shape"/>
</filter>
</defs>
</svg>
