<svg width="54" height="54" viewBox="0 0 54 54" fill="none" xmlns="http://www.w3.org/2000/svg">
<rect width="53.3061" height="53.3061" transform="translate(0.295898 0.306152)" fill="#F9F9F9"/>
<g clip-path="url(#clip0_510_1897)">
<path d="M26.949 10.3062C17.7518 10.3062 10.2959 17.7621 10.2959 26.9592C10.2959 34.7688 15.6728 41.3221 22.9262 43.122V32.0484H19.4924V26.9592H22.9262V24.7663C22.9262 19.0983 25.4915 16.4711 31.0563 16.4711C32.1114 16.4711 33.9319 16.6783 34.6766 16.8848V21.4977C34.2836 21.4564 33.6009 21.4357 32.7529 21.4357C30.0224 21.4357 28.9673 22.4702 28.9673 25.1594V26.9592H34.4069L33.4723 32.0484H28.9673V43.4904C37.2132 42.4945 43.6027 35.4736 43.6027 26.9592C43.602 17.7621 36.1461 10.3062 26.949 10.3062Z" fill="black"/>
</g>
<defs>
<clipPath id="clip0_510_1897">
<rect width="33.3061" height="33.3061" fill="white" transform="translate(10.2959 10.3062)"/>
</clipPath>
</defs>
</svg>
