<svg width="55" height="54" viewBox="0 0 55 54" fill="none" xmlns="http://www.w3.org/2000/svg">
<rect width="53.3061" height="53.3061" transform="translate(0.989746 0.306152)" fill="#F9F9F9"/>
<g clip-path="url(#clip0_510_1895)">
<path d="M27.6428 13.305C32.0923 13.305 32.6192 13.3245 34.3691 13.4026C35.9954 13.4741 36.8735 13.7474 37.459 13.975C38.2331 14.2743 38.7926 14.6386 39.3715 15.2175C39.957 15.803 40.3147 16.3559 40.614 17.13C40.8417 17.7155 41.1149 18.6002 41.1864 20.2199C41.2645 21.9763 41.284 22.5032 41.284 26.9462C41.284 31.3957 41.2645 31.9226 41.1864 33.6725C41.1149 35.2988 40.8417 36.1769 40.614 36.7624C40.3147 37.5365 39.9505 38.096 39.3715 38.6749C38.786 39.2604 38.2331 39.6181 37.459 39.9174C36.8735 40.1451 35.9889 40.4183 34.3691 40.4898C32.6127 40.5679 32.0858 40.5874 27.6428 40.5874C23.1933 40.5874 22.6664 40.5679 20.9165 40.4898C19.2903 40.4183 18.4121 40.1451 17.8266 39.9174C17.0525 39.6181 16.4931 39.2539 15.9141 38.6749C15.3286 38.0894 14.9709 37.5365 14.6716 36.7624C14.444 36.1769 14.1707 35.2923 14.0992 33.6725C14.0211 31.9161 14.0016 31.3892 14.0016 26.9462C14.0016 22.4967 14.0211 21.9698 14.0992 20.2199C14.1707 18.5937 14.444 17.7155 14.6716 17.13C14.9709 16.3559 15.3352 15.7965 15.9141 15.2175C16.4996 14.632 17.0525 14.2743 17.8266 13.975C18.4121 13.7474 19.2968 13.4741 20.9165 13.4026C22.6664 13.3245 23.1933 13.305 27.6428 13.305ZM27.6428 10.3062C23.1218 10.3062 22.5558 10.3257 20.7799 10.4037C19.0105 10.4818 17.7941 10.768 16.7403 11.1778C15.6409 11.6072 14.7107 12.1731 13.7869 13.1033C12.8567 14.0271 12.2908 14.9573 11.8614 16.0502C11.4516 17.1105 11.1654 18.3204 11.0873 20.0898C11.0093 21.8722 10.9897 22.4382 10.9897 26.9592C10.9897 31.4803 11.0093 32.0462 11.0873 33.8221C11.1654 35.5915 11.4516 36.8079 11.8614 37.8618C12.2908 38.9611 12.8567 39.8914 13.7869 40.8151C14.7107 41.7388 15.6409 42.3113 16.7338 42.7341C17.7941 43.1439 19.004 43.4301 20.7734 43.5082C22.5493 43.5863 23.1153 43.6058 27.6363 43.6058C32.1573 43.6058 32.7233 43.5863 34.4992 43.5082C36.2686 43.4301 37.485 43.1439 38.5389 42.7341C39.6317 42.3113 40.5619 41.7388 41.4857 40.8151C42.4094 39.8914 42.9818 38.9611 43.4047 37.8683C43.8145 36.8079 44.1007 35.598 44.1788 33.8286C44.2568 32.0527 44.2764 31.4868 44.2764 26.9657C44.2764 22.4447 44.2568 21.8787 44.1788 20.1028C44.1007 18.3334 43.8145 17.117 43.4047 16.0632C42.9948 14.9573 42.4289 14.0271 41.4987 13.1033C40.575 12.1796 39.6447 11.6072 38.5519 11.1843C37.4915 10.7745 36.2816 10.4883 34.5122 10.4102C32.7298 10.3257 32.1639 10.3062 27.6428 10.3062Z" fill="black"/>
<path d="M27.6426 18.405C22.9199 18.405 19.0884 22.2365 19.0884 26.9592C19.0884 31.6819 22.9199 35.5134 27.6426 35.5134C32.3653 35.5134 36.1968 31.6819 36.1968 26.9592C36.1968 22.2365 32.3653 18.405 27.6426 18.405ZM27.6426 32.5081C24.5787 32.5081 22.0937 30.0231 22.0937 26.9592C22.0937 23.8953 24.5787 21.4104 27.6426 21.4104C30.7065 21.4104 33.1914 23.8953 33.1914 26.9592C33.1914 30.0231 30.7065 32.5081 27.6426 32.5081Z" fill="black"/>
<path d="M38.5322 18.0669C38.5322 19.1728 37.6345 20.064 36.5352 20.064C35.4293 20.064 34.5381 19.1663 34.5381 18.0669C34.5381 16.961 35.4358 16.0698 36.5352 16.0698C37.6345 16.0698 38.5322 16.9675 38.5322 18.0669Z" fill="black"/>
</g>
<defs>
<clipPath id="clip0_510_1895">
<rect width="33.3061" height="33.3061" fill="white" transform="translate(10.9897 10.3062)"/>
</clipPath>
</defs>
</svg>
