<svg width="54" height="54" viewBox="0 0 54 54" fill="none" xmlns="http://www.w3.org/2000/svg">
<rect width="53.3061" height="53.3061" transform="translate(0.602051 0.306152)" fill="#F9F9F9"/>
<path fill-rule="evenodd" clip-rule="evenodd" d="M12.6837 26.9592C12.6837 35.0068 19.2075 41.5306 27.2551 41.5306C35.3027 41.5306 41.8265 35.0068 41.8265 26.9592C41.8265 18.9116 35.3027 12.3878 27.2551 12.3878C19.2075 12.3878 12.6837 18.9116 12.6837 26.9592ZM43.9082 26.9592C43.9082 36.1564 36.4523 43.6123 27.2551 43.6123C18.0579 43.6123 10.6021 36.1564 10.6021 26.9592C10.6021 17.762 18.0579 10.3062 27.2551 10.3062C36.4523 10.3062 43.9082 17.762 43.9082 26.9592ZM19.9695 25.9181C19.3947 25.9181 18.9287 26.3841 18.9287 26.9589C18.9287 27.5337 19.3947 27.9997 19.9695 27.9997H32.0282L27.5601 32.4678C27.1536 32.8743 27.1536 33.5333 27.5601 33.9398C27.9666 34.3462 28.6256 34.3462 29.032 33.9398L35.2769 27.6949C35.6834 27.2884 35.6834 26.6294 35.2769 26.2229L29.032 19.978C28.6256 19.5716 27.9666 19.5716 27.5601 19.978C27.1536 20.3845 27.1536 21.0435 27.5601 21.45L32.0282 25.9181H19.9695Z" fill="black"/>
</svg>
